<?xml version="1.0" encoding="UTF-8" standalone="no"?>
<!-- Created with Inkscape (http://www.inkscape.org/) -->

<svg
   width="28.879"
   height="28.879"
   viewBox="0 0 28.878999 28.879"
   version="1.1"
   id="svg1310"
   xmlns="http://www.w3.org/2000/svg">
  <defs
     id="defs1307" />
  <g
     id="layer1">
    <path
       d="m 12.435396,27.840363 -0.007,-0.457003 12.926668,-5.511035 2.038105,0.288002 -0.012,0.385002 -12.942668,6.334041 z"
       style="fill:#977753;stroke-width:1.00003"
       id="path11" />
    <path
       d="m 12.442396,27.38836 12.912667,-5.877037 2.050106,0.663004 -12.96667,6.26404 z"
       style="fill:#7a552c;stroke-width:1.00003"
       id="path13" />
    <path
       d="m 12.432396,25.951351 2.010103,1.086007 v 1.416009 L 12.432396,27.36736 Z"
       style="fill:#886947;stroke-width:1.00003"
       id="path15" />
    <path
       d="m 27.314164,20.786318 -1.521079,0.766005 v 1.416009 l 1.521079,-0.766005 z"
       style="fill:#9a7246;stroke-width:1.00003"
       id="path17" />
    <path
       d="m 18.352701,23.072333 2.010104,1.086007 v 1.416009 l -2.010104,-1.086007 z"
       style="fill:#694a27;stroke-width:1.00003"
       id="path19" />
    <path
       d="m 21.882884,23.393335 -1.521079,0.766005 v 1.416009 l 1.521079,-0.766005 z"
       style="fill:#9a7246;stroke-width:1.00003"
       id="path21" />
    <path
       d="m 6.89611,25.070346 -0.007,-0.400003 12.925667,-5.514035 2.038105,0.288002 -0.012,0.385002 -12.9426674,6.28004 z"
       style="fill:#715a40;stroke-width:1.00003"
       id="path23" />
    <path
       d="m 6.8931098,23.235334 2.0091037,1.086007 V 25.73735 L 6.8921098,24.651343 v -1.416009 z"
       style="fill:#886947;stroke-width:1.00003"
       id="path25" />
    <path
       d="M 10.423292,23.555336 8.9022135,24.321341 V 25.73735 L 10.423292,24.971345 Z"
       style="fill:#6d471e;stroke-width:1.00003"
       id="path27" />
    <path
       d="m 1.6278383,22.409329 -0.007,-0.349003 12.9266667,-5.511035 2.038105,0.288002 -0.011,0.384003 -12.9446682,6.227039 z"
       style="fill:#7a5f41;stroke-width:1.00003"
       id="path29" />
    <path
       d="m 1.6248381,20.629317 2.0101036,1.086007 v 1.416009 L 1.6248381,22.045326 Z"
       style="fill:#886947;stroke-width:1.00003"
       id="path31" />
    <path
       d="m 5.1550201,20.949319 -1.5210785,0.766005 v 1.416009 l 1.5210785,-0.766005 z"
       style="fill:#6d471e;stroke-width:1.00003"
       id="path33" />
    <path
       d="m 1.5188326,20.943319 -0.007,-0.282002 c 0,0 2.5391309,-0.09 1.6890871,0.115001 C 4.253974,20.113314 14.356495,16.221289 14.356495,16.221289 l 12.961669,4.440028 0.062,0.279002 -12.942668,6.090039 z"
       style="fill:#977753;stroke-width:1.00003"
       id="path35" />
    <path
       d="m 1.4738303,20.681318 12.9666687,-4.519029 12.96367,4.519029 -12.96567,6.019038 z"
       style="fill:#c69c6d;stroke-width:1.00003"
       id="path37" />
    <path
       d="M 14.546505,4.9612181 8.3461848,2.4802024 v 8.1230506 l 6.2003202,2.522016 z"
       style="fill:#e5ac3d;stroke:#73561f;stroke-width:0.0543108px;stroke-miterlimit:10"
       id="path39" />
    <path
       d="M 14.505503,4.9952183 20.620818,2.5602029 14.474501,0.02918679 8.3331841,2.4962025 Z"
       style="fill:#e3b04e;stroke:#73561f;stroke-width:0.0540724px;stroke-miterlimit:10"
       id="path41" />
    <g
       id="use43"
       transform="matrix(0,-0.02900018,0.02200114,0.01300008,8.7342048,4.5712156)">
      <rect
         width="45.720001"
         height="26.280001"
         style="fill:none"
         id="rect1548"
         x="0"
         y="0" />
      <polygon
         points="45.72,13.139 22.926,0 22.926,9.97 0,9.97 0,16.309 22.926,16.309 22.926,26.28 "
         style="fill:#231f20"
         id="polygon1550" />
    </g>
    <path
       d="m 20.683822,15.430284 6.20032,-2.481016 v 7.311047 l -6.20032,2.878018 z"
       style="fill:#e5ac3d;stroke:#73561f;stroke-width:0.0543108px;stroke-miterlimit:10"
       id="path45" />
    <path
       d="m 20.674821,7.455234 6.20032,-2.4150154 v 7.9060494 l -6.20032,2.509016 z"
       style="fill:#e5ac3d;stroke:#73561f;stroke-width:0.0543108px;stroke-miterlimit:10"
       id="path47" />
    <path
       d="m 20.607818,7.4402339 -6.033312,-2.5620163 6.062313,-2.2740144 6.20032,2.4000152 z"
       style="fill:#e3b04e;stroke:#73561f;stroke-width:0.0543108px;stroke-miterlimit:10"
       id="path49" />
    <path
       d="M 8.2461796,15.413284 2.0458598,13.021269 v 7.375047 l 6.2003198,2.847018 z"
       style="fill:#e5ac3d;stroke:#73561f;stroke-width:0.0543108px;stroke-miterlimit:10"
       id="path51" />
    <path
       d="M 8.2301788,15.465284 14.430499,13.048269 8.2301788,10.583253 2.029859,12.983269 Z"
       style="fill:#e3b04e;stroke:#73561f;stroke-width:0.0543108px;stroke-miterlimit:10"
       id="path53" />
    <line
       x1="5.1260242"
       y1="14.204271"
       x2="11.322341"
       y2="11.73726"
       style="fill:none;stroke:#73561f;stroke-width:0.0543108px;stroke-miterlimit:10"
       id="line55" />
    <path
       d="m 14.474501,17.9793 -6.20032,-2.464015 v 7.715049 l 6.20032,2.957019 z"
       style="fill:#e5ac3d;stroke:#73561f;stroke-width:0.0543108px;stroke-miterlimit:10"
       id="path57" />
    <path
       d="m 14.424499,18.050301 6.255322,-2.481016 v 7.661049 l -6.255322,2.957019 z"
       style="fill:#e5ac3d;stroke:#73561f;stroke-width:0.0543108px;stroke-miterlimit:10"
       id="path59" />
    <path
       d="m 14.438499,9.8682492 6.20032,-2.4460154 v 8.1600512 l -6.20032,2.485016 z"
       style="fill:#e5ac3d;stroke:#73561f;stroke-width:0.0543108px;stroke-miterlimit:10"
       id="path61" />
    <path
       d="M 14.438499,9.8492492 8.2381792,7.3682334 v 8.1230516 l 6.2003198,2.522016 z"
       style="fill:#e5ac3d;stroke:#73561f;stroke-width:0.0543108px;stroke-miterlimit:10"
       id="path63" />
    <path
       d="M 14.4515,9.8292492 20.620818,7.3942336 14.420498,4.8632175 8.2201782,7.3302332 Z"
       style="fill:#e3b04e;stroke:#73561f;stroke-width:0.0543108px;stroke-miterlimit:10"
       id="path65" />
    <line
       x1="10.99432"
       y1="8.4702415"
       x2="17.190641"
       y2="6.0032325"
       style="fill:none;stroke:#73561f;stroke-width:0.0543108px;stroke-miterlimit:10"
       id="line67" />
    <line
       x1="11.211328"
       y1="3.6912067"
       x2="17.407646"
       y2="1.2241945"
       style="fill:none;stroke:#73561f;stroke-width:0.0543108px;stroke-miterlimit:10"
       id="line69" />
    <line
       x1="17.985682"
       y1="3.6072066"
       x2="24.302017"
       y2="6.0542278"
       style="fill:none;stroke:#73561f;stroke-width:0.0543108px;stroke-miterlimit:10"
       id="line71" />
    <polygon
       points="18.301,7.395 12.061,9.879 13.543,10.472 19.739,8.006 "
       style="opacity:0.3;fill:#ffffff;stroke:#73561f;stroke-width:0.0474122px;stroke-miterlimit:10"
       id="polygon73"
       transform="matrix(1.0000516,0,0,1.0000063,-1.8263402,-1.6788239)" />
    <polygon
       points="18.573,2.616 12.333,5.1 13.815,5.693 20.01,3.227 "
       style="opacity:0.3;fill:#ffffff;stroke:#73561f;stroke-width:0.0474122px;stroke-miterlimit:10"
       id="polygon75"
       transform="matrix(1.0000516,0,0,1.0000063,-1.8263402,-1.6788239)" />
    <polygon
       points="6.266,15.628 7.747,16.22 10.089,15.288 10.063,14.116 "
       style="opacity:0.3;fill:#ffffff;stroke:#73561f;stroke-width:0.0474122px;stroke-miterlimit:10"
       id="polygon77"
       transform="matrix(1.0000516,0,0,1.0000063,-1.8263402,-1.6788239)" />
    <polygon
       points="20.495,5.029 19.156,5.554 25.383,7.967 26.725,7.443 "
       style="opacity:0.3;fill:#ffffff;stroke:#73561f;stroke-width:0.0418619px;stroke-miterlimit:10"
       id="polygon79"
       transform="matrix(1.0000516,0,0,1.0000063,-1.8263402,-1.6788239)" />
    <polygon
       points="6.751,17.465 6.647,17.424 6.7,17.509 "
       style="fill:none"
       id="polygon81"
       transform="matrix(1.0000516,0,0,1.0000063,-1.8263402,-1.6788239)" />
    <polygon
       points="7.155,17.622 7.026,17.571 7.09,17.679 "
       style="fill:none"
       id="polygon83"
       transform="matrix(1.0000516,0,0,1.0000063,-1.8263402,-1.6788239)" />
    <polygon
       points="6.647,17.424 6.751,17.465 6.889,17.343 7.026,17.571 7.155,17.622 7.344,17.456 7.582,17.788 7.719,17.841 7.719,16.195 6.266,15.63 6.266,17.275 6.467,17.139 "
       style="opacity:0.3;fill:#ffffff;stroke:#73561f;stroke-width:0.066615px;stroke-miterlimit:10"
       id="polygon85"
       transform="matrix(1.0000516,0,0,1.0000063,-1.8263402,-1.6788239)" />
    <polygon
       points="12.833,6.929 12.729,6.888 12.783,6.973 "
       style="fill:none"
       id="polygon87"
       transform="matrix(1.0000516,0,0,1.0000063,-1.8263402,-1.6788239)" />
    <polygon
       points="13.238,7.086 13.108,7.035 13.173,7.143 "
       style="fill:none"
       id="polygon89"
       transform="matrix(1.0000516,0,0,1.0000063,-1.8263402,-1.6788239)" />
    <polygon
       points="12.729,6.888 12.833,6.929 12.971,6.807 13.108,7.035 13.238,7.086 13.426,6.92 13.665,7.252 13.802,7.305 13.802,5.659 12.348,5.094 12.348,6.739 12.55,6.603 "
       style="opacity:0.3;fill:#ffffff;stroke:#73561f;stroke-width:0.066615px;stroke-miterlimit:10"
       id="polygon91"
       transform="matrix(1.0000516,0,0,1.0000063,-1.8263402,-1.6788239)" />
    <polygon
       points="12.594,11.739 12.49,11.699 12.544,11.783 "
       style="fill:none"
       id="polygon93"
       transform="matrix(1.0000516,0,0,1.0000063,-1.8263402,-1.6788239)" />
    <polygon
       points="12.998,11.896 12.869,11.846 12.933,11.953 "
       style="fill:none"
       id="polygon95"
       transform="matrix(1.0000516,0,0,1.0000063,-1.8263402,-1.6788239)" />
    <polygon
       points="12.49,11.699 12.594,11.739 12.732,11.618 12.869,11.846 12.998,11.896 13.187,11.73 13.425,12.062 13.562,12.115 13.562,10.47 12.109,9.905 12.109,11.55 12.31,11.414 "
       style="opacity:0.3;fill:#ffffff;stroke:#73561f;stroke-width:0.066615px;stroke-miterlimit:10"
       id="polygon97"
       transform="matrix(1.0000516,0,0,1.0000063,-1.8263402,-1.6788239)" />
    <polygon
       points="13.089,16.764 13.193,16.803 13.139,16.719 "
       style="fill:none"
       id="polygon99"
       transform="matrix(1.0000516,0,0,1.0000063,-1.8263402,-1.6788239)" />
    <polygon
       points="12.682,16.612 12.813,16.661 12.747,16.554 "
       style="fill:none"
       id="polygon101"
       transform="matrix(1.0000516,0,0,1.0000063,-1.8263402,-1.6788239)" />
    <polygon
       points="13.193,16.803 13.089,16.764 12.953,16.887 12.813,16.661 12.682,16.612 12.496,16.781 12.253,16.452 12.116,16.401 12.139,18.046 13.6,18.591 13.577,16.946 13.377,17.085 "
       style="opacity:0.3;fill:#ffffff;stroke:#73561f;stroke-width:0.066615px;stroke-miterlimit:10"
       id="polygon103"
       transform="matrix(1.0000516,0,0,1.0000063,-1.8263402,-1.6788239)" />
    <polygon
       points="7.278,21.923 7.382,21.962 7.328,21.878 "
       style="fill:none"
       id="polygon105"
       transform="matrix(1.0000516,0,0,1.0000063,-1.8263402,-1.6788239)" />
    <polygon
       points="6.871,21.772 7.001,21.82 6.936,21.714 "
       style="fill:none"
       id="polygon107"
       transform="matrix(1.0000516,0,0,1.0000063,-1.8263402,-1.6788239)" />
    <polygon
       points="7.382,21.962 7.278,21.923 7.141,22.046 7.001,21.82 6.871,21.772 6.685,21.94 6.442,21.612 6.304,21.56 6.327,23.206 7.719,23.845 7.766,22.105 7.566,22.244 "
       style="opacity:0.3;fill:#ffffff;stroke:#73561f;stroke-width:0.066615px;stroke-miterlimit:10"
       id="polygon109"
       transform="matrix(1.0000516,0,0,1.0000063,-1.8263402,-1.6788239)" />
    <polygon
       points="25.812,14.138 25.708,14.178 25.761,14.093 "
       style="fill:none"
       id="polygon111"
       transform="matrix(1.0000516,0,0,1.0000063,-1.8263402,-1.6788239)" />
    <polygon
       points="26.216,13.98 26.087,14.031 26.151,13.923 "
       style="fill:none"
       id="polygon113"
       transform="matrix(1.0000516,0,0,1.0000063,-1.8263402,-1.6788239)" />
    <polygon
       points="25.708,14.178 25.812,14.138 25.95,14.259 26.087,14.031 26.216,13.98 26.405,14.146 26.643,13.814 26.78,13.761 26.78,15.407 25.327,15.972 25.327,14.327 25.528,14.463 "
       style="opacity:0.3;fill:#ffffff;stroke:#73561f;stroke-width:0.066615px;stroke-miterlimit:10"
       id="polygon115"
       transform="matrix(1.0000516,0,0,1.0000063,-1.8263402,-1.6788239)" />
    <polygon
       points="26.307,9.276 26.411,9.237 26.356,9.321 "
       style="fill:none"
       id="polygon117"
       transform="matrix(1.0000516,0,0,1.0000063,-1.8263402,-1.6788239)" />
    <polygon
       points="25.9,9.427 26.03,9.379 25.964,9.485 "
       style="fill:none"
       id="polygon119"
       transform="matrix(1.0000516,0,0,1.0000063,-1.8263402,-1.6788239)" />
    <polygon
       points="26.411,9.237 26.307,9.276 26.17,9.152 26.03,9.379 25.9,9.427 25.714,9.259 25.471,9.587 25.333,9.639 25.356,7.993 26.817,7.448 26.794,9.093 26.595,8.955 "
       style="opacity:0.3;fill:#ffffff;stroke:#73561f;stroke-width:0.066615px;stroke-miterlimit:10"
       id="polygon121"
       transform="matrix(1.0000516,0,0,1.0000063,-1.8263402,-1.6788239)" />
    <polygon
       points="19.478,24.602 19.375,24.642 19.428,24.558 "
       style="fill:none"
       id="polygon123"
       transform="matrix(1.0000516,0,0,1.0000063,-1.8263402,-1.6788239)" />
    <polygon
       points="19.883,24.445 19.753,24.495 19.818,24.388 "
       style="fill:none"
       id="polygon125"
       transform="matrix(1.0000516,0,0,1.0000063,-1.8263402,-1.6788239)" />
    <polygon
       points="19.375,24.642 19.478,24.602 19.617,24.723 19.753,24.495 19.883,24.445 20.072,24.611 20.31,24.279 20.447,24.226 20.447,25.871 18.993,26.545 18.993,24.791 19.195,24.927 "
       style="opacity:0.3;fill:#ffffff;stroke:#73561f;stroke-width:0.066615px;stroke-miterlimit:10"
       id="polygon127"
       transform="matrix(1.0000516,0,0,1.0000063,-1.8263402,-1.6788239)" />
    <polygon
       points="19.973,19.903 20.078,19.864 20.023,19.948 "
       style="fill:none"
       id="polygon129"
       transform="matrix(1.0000516,0,0,1.0000063,-1.8263402,-1.6788239)" />
    <polygon
       points="19.567,20.055 19.697,20.006 19.631,20.113 "
       style="fill:none"
       id="polygon131"
       transform="matrix(1.0000516,0,0,1.0000063,-1.8263402,-1.6788239)" />
    <polygon
       points="20.078,19.864 19.973,19.903 19.837,19.78 19.697,20.006 19.567,20.055 19.38,19.886 19.138,20.215 19,20.266 19.023,18.62 20.484,18.076 20.461,19.721 20.262,19.582 "
       style="opacity:0.3;fill:#ffffff;stroke:#73561f;stroke-width:0.066615px;stroke-miterlimit:10"
       id="polygon133"
       transform="matrix(1.0000516,0,0,1.0000063,-1.8263402,-1.6788239)" />
    <path
       d="m 19.600766,11.811261 -0.172009,-0.039 v -0.051 l 0.148007,-0.208002 a 0.08700449,0.08700055 0 0 0 0.018,-0.065 0.03500181,0.03500022 0 0 0 -0.037,-0.03 l -0.189009,0.006 -0.015,-0.045 0.118006,-0.222001 a 0.07300377,0.07300046 0 0 0 0.007,-0.063 0.03700191,0.03700024 0 0 0 -0.045,-0.018 l -0.20001,0.051 -0.024,-0.037 0.084,-0.229002 a 0.05800299,0.05800037 0 0 0 0,-0.058 0.04200217,0.04200027 0 0 0 -0.051,-0.006 l -0.20001,0.094 -0.032,-0.027 0.047,-0.227001 a 0.04700243,0.0470003 0 0 0 -0.016,-0.052 0.05200268,0.05200033 0 0 0 -0.056,0.007 l -0.20001,0.133001 -0.039,-0.017 0.007,-0.215001 a 0.03900201,0.03900025 0 0 0 -0.026,-0.043 0.06500336,0.06500041 0 0 0 -0.058,0.02 l -0.18401,0.166001 -0.045,-0.006 -0.033,-0.200002 a 0.03600186,0.03600023 0 0 0 -0.036,-0.032 0.08000413,0.08000051 0 0 0 -0.057,0.031 l -0.164008,0.194002 -0.049,0.005 -0.071,-0.168001 a 0.03600186,0.03600023 0 0 0 -0.044,-0.021 0.09400485,0.0940006 0 0 0 -0.055,0.042 l -0.138008,0.214001 -0.05,0.016 -0.107006,-0.135001 a 0.04100212,0.04100026 0 0 0 -0.05,-0.008 0.10000516,0.10000064 0 0 0 -0.05,0.051 l -0.107005,0.226001 -0.05,0.026 -0.138007,-0.1 a 0.05000258,0.05000032 0 0 0 -0.055,0 0.10900563,0.10900069 0 0 0 -0.044,0.058 l -0.071,0.228001 -0.049,0.036 -0.164009,-0.054 a 0.0620032,0.06200039 0 0 0 -0.057,0.017 0.10700552,0.10700068 0 0 0 -0.036,0.063 l -0.033,0.223001 -0.045,0.044 -0.184009,-0.01 a 0.07700397,0.07700049 0 0 0 -0.058,0.029 0.10000516,0.10000064 0 0 0 -0.026,0.065 l 0.007,0.209001 -0.039,0.05 -0.20001,0.035 a 0.09200475,0.09200059 0 0 0 -0.056,0.04 0.08500439,0.08500054 0 0 0 -0.016,0.065 l 0.046,0.187002 -0.032,0.054 -0.200011,0.079 a 0.10000516,0.10000064 0 0 0 -0.051,0.049 0.07000361,0.07000045 0 0 0 0,0.062 l 0.084,0.157001 -0.024,0.057 -0.200011,0.119 a 0.10900563,0.10900069 0 0 0 -0.045,0.057 0.05600289,0.05600036 0 0 0 0.007,0.057 l 0.118006,0.122001 -0.015,0.058 -0.18901,0.155001 a 0.10700552,0.10700068 0 0 0 -0.037,0.062 0.04500232,0.04500029 0 0 0 0.018,0.05 l 0.148008,0.082 v 0.055 l -0.172009,0.185001 a 0.10000516,0.10000064 0 0 0 -0.028,0.065 0.03800196,0.03800024 0 0 0 0.028,0.041 l 0.172009,0.039 v 0.051 l -0.148008,0.208002 a 0.08800454,0.08800056 0 0 0 -0.018,0.065 0.03500181,0.03500022 0 0 0 0.037,0.03 l 0.18901,-0.006 0.015,0.045 -0.118006,0.222002 a 0.07300377,0.07300046 0 0 0 -0.007,0.063 0.03700191,0.03700024 0 0 0 0.045,0.018 l 0.200011,-0.051 0.024,0.037 -0.084,0.229002 a 0.05800299,0.05800037 0 0 0 0,0.058 0.04200217,0.04200027 0 0 0 0.051,0.006 l 0.200011,-0.094 0.032,0.027 -0.046,0.227001 a 0.04700243,0.0470003 0 0 0 0.016,0.051 0.05200268,0.05200033 0 0 0 0.056,-0.007 l 0.20001,-0.133 0.039,0.017 -0.007,0.215001 a 0.03900201,0.03900025 0 0 0 0.026,0.043 0.06500336,0.06500041 0 0 0 0.058,-0.02 l 0.184009,-0.166001 0.045,0.006 0.033,0.200001 a 0.03500181,0.03500022 0 0 0 0.036,0.032 0.08000413,0.08000051 0 0 0 0.057,-0.031 l 0.164009,-0.194001 0.049,-0.005 0.071,0.168001 a 0.03600186,0.03600023 0 0 0 0.044,0.02 0.0930048,0.09300059 0 0 0 0.055,-0.042 l 0.138007,-0.214001 0.05,-0.016 0.107005,0.135001 a 0.04100212,0.04100026 0 0 0 0.05,0.008 0.10000516,0.10000064 0 0 0 0.05,-0.051 l 0.107006,-0.226001 0.05,-0.027 0.138008,0.1 a 0.05000258,0.05000032 0 0 0 0.055,0 0.10900563,0.10900069 0 0 0 0.044,-0.058 l 0.071,-0.228002 0.049,-0.036 0.164008,0.054 a 0.06300325,0.0630004 0 0 0 0.057,-0.017 0.10700552,0.10700068 0 0 0 0.036,-0.063 l 0.033,-0.223001 0.045,-0.044 0.18401,0.01 a 0.07700397,0.07700049 0 0 0 0.058,-0.029 0.10000516,0.10000064 0 0 0 0.026,-0.065 l -0.007,-0.209002 0.039,-0.05 0.20001,-0.035 a 0.0910047,0.09100058 0 0 0 0.056,-0.04 0.08500439,0.08500054 0 0 0 0.016,-0.065 l -0.046,-0.187001 0.017,-0.053 0.200011,-0.079 a 0.10000516,0.10000064 0 0 0 0.051,-0.049 0.07000361,0.07000045 0 0 0 0,-0.062 l -0.084,-0.157001 0.024,-0.057 0.20001,-0.119001 a 0.10800558,0.10800069 0 0 0 0.045,-0.057 0.05600289,0.05600036 0 0 0 -0.007,-0.057 l -0.118006,-0.122001 0.015,-0.058 0.18901,-0.155001 a 0.10700552,0.10700068 0 0 0 0.037,-0.062 0.04500232,0.04500029 0 0 0 -0.018,-0.05 l -0.148008,-0.082 v -0.055 l 0.172009,-0.185001 a 0.10000516,0.10000064 0 0 0 0.028,-0.065 0.03800196,0.03800024 0 0 0 -0.014,-0.039 z m -1.15306,1.988013 c -0.066,0.013 -0.108005,-0.037 -0.094,-0.112001 a 0.20801074,0.20800131 0 0 1 0.145008,-0.160001 c 0.066,-0.013 0.108005,0.037 0.09401,0.112001 a 0.20901079,0.20900132 0 0 1 -0.145008,0.160001 z m -0.059,-0.390003 a 0.19000981,0.19000121 0 0 0 -0.132007,0.146001 l -0.061,0.325002 a 2.2521163,2.2520142 0 0 1 -0.619032,0.400003 1.4000723,1.4000089 0 0 1 -0.632032,0.123001 l -0.061,-0.273002 c -0.013,-0.057 -0.072,-0.072 -0.132006,-0.033 l -0.252013,0.164001 a 0.82504258,0.82500523 0 0 1 -0.130007,-0.106001 l 1.226063,-0.521003 c 0.014,-0.006 0.023,-0.012 0.023,-0.026 V 13.15327 c 0,-0.013 -0.009,-0.012 -0.023,-0.006 l -0.359018,0.152001 v -0.288002 l 0.38802,-0.165001 a 0.16100831,0.16100103 0 0 1 0.239012,0.115 c 0.015,0.057 0.049,0.249002 0.072,0.300002 0.023,0.051 0.117006,0.172001 0.217011,0.130001 l 0.611032,-0.260001 0.022,-0.012 c -0.042,0.078 -0.08901,0.155001 -0.139008,0.230002 z m -1.700088,1.130007 c -0.066,0.043 -0.131006,0.026 -0.145007,-0.037 a 0.20001032,0.20000126 0 0 1 0.09401,-0.192001 c 0.066,-0.043 0.131007,-0.026 0.145007,0.037 a 0.20001032,0.20000126 0 0 1 -0.09,0.192001 z m -0.465024,-1.779011 a 0.18000929,0.18000115 0 0 1 -0.062,0.200001 c -0.062,0.055 -0.134007,0.056 -0.161008,0 a 0.18000929,0.18000115 0 0 1 0.062,-0.200001 c 0.066,-0.051 0.138007,-0.053 0.165009,0 z m -0.143007,0.416003 0.263014,-0.234002 a 0.16400847,0.16400104 0 0 0 0.057,-0.178001 l -0.054,-0.105 0.213011,-0.09 v 1.000006 l -0.429022,0.182001 a 1.3860715,1.3860088 0 0 1 -0.057,-0.407002 c 0.001,-0.052 0.001,-0.110001 0.011,-0.168001 z m 1.152059,-0.587004 v -0.300002 l 0.506027,-0.215001 c 0.026,-0.011 0.185009,-0.047 0.185009,0.077 0,0.100001 -0.122006,0.192002 -0.222011,0.234002 l -0.470025,0.200001 z m 1.840095,-0.516003 q 0,0.059 0,0.118001 l -0.154007,0.065 a 0.03600186,0.03600023 0 0 0 -0.022,0.036 v 0.074 a 0.310016,0.31000196 0 0 1 -0.176009,0.300002 c -0.078,0.043 -0.165008,0.036 -0.176009,-0.01 -0.046,-0.253002 -0.123006,-0.278002 -0.245012,-0.327003 a 0.98405078,0.98400624 0 0 0 0.308015,-0.578003 0.30001549,0.3000019 0 0 0 -0.235012,-0.315002 0.56802931,0.56800361 0 0 0 -0.322016,0.026 l -1.592082,0.677004 a 2.7001394,2.7000171 0 0 1 0.840043,-0.853005 l 0.18801,0.127001 c 0.042,0.029 0.113005,0 0.157008,-0.063 l 0.210011,-0.300002 a 0.9380484,0.93800595 0 0 1 1.027053,0.330002 l -0.144008,0.400003 c -0.025,0.069 0,0.128001 0.057,0.130001 l 0.277014,0.011 q 0.004,0.073 0.004,0.152001 z m -1.591082,-1.044007 c 0.049,-0.069 0.126007,-0.1 0.172009,-0.069 0.046,0.031 0.045,0.113 0,0.183001 -0.045,0.07 -0.126006,0.100001 -0.172009,0.069 -0.046,-0.031 -0.044,-0.114 0.005,-0.184001 z m 1.427074,0.600004 a 0.19100986,0.19100122 0 0 1 0.161008,-0.133001 c 0.062,0 0.08901,0.066 0.062,0.142001 a 0.19100986,0.19100122 0 0 1 -0.161009,0.133001 c -0.057,-0.006 -0.085,-0.07 -0.058,-0.150001 z"
       style="opacity:0.55;stroke-width:1.00003"
       id="path135" />
    <path
       d="m 13.48845,21.742324 -0.19001,-0.195001 -0.005,-0.057 0.163009,-0.085 a 0.04600237,0.04600029 0 0 0 0.02,-0.052 0.11200578,0.11200071 0 0 0 -0.041,-0.065 l -0.20801,-0.163001 -0.016,-0.06 0.130007,-0.127001 a 0.05700294,0.05700036 0 0 0 0.007,-0.06 0.11600599,0.11600074 0 0 0 -0.05,-0.06 l -0.220011,-0.126 -0.026,-0.06 0.092,-0.165001 a 0.07000361,0.07000045 0 0 0 -0.005,-0.065 0.11100573,0.11100071 0 0 0 -0.057,-0.052 l -0.223011,-0.083 -0.035,-0.057 0.051,-0.200002 a 0.08600444,0.08600055 0 0 0 -0.017,-0.068 0.10000516,0.10000064 0 0 0 -0.061,-0.042 l -0.217012,-0.038 -0.043,-0.053 0.008,-0.220001 a 0.10000516,0.10000064 0 0 0 -0.029,-0.068 0.08700449,0.08700055 0 0 0 -0.063,-0.031 l -0.200011,0.01 -0.049,-0.047 -0.036,-0.234002 a 0.11100573,0.11100071 0 0 0 -0.039,-0.066 0.07100367,0.07100045 0 0 0 -0.063,-0.018 l -0.18101,0.056 -0.054,-0.038 -0.078,-0.240002 a 0.11500594,0.11500073 0 0 0 -0.048,-0.061 0.05700294,0.05700036 0 0 0 -0.06,-0.005 l -0.152008,0.100001 -0.059,-0.026 -0.117007,-0.238001 a 0.11300583,0.11300072 0 0 0 -0.055,-0.054 0.04600237,0.04600029 0 0 0 -0.055,0.008 l -0.117006,0.142 -0.055,-0.017 -0.152007,-0.225001 a 0.10000516,0.10000064 0 0 0 -0.06,-0.044 0.04000206,0.04000025 0 0 0 -0.048,0.021 l -0.078,0.176001 -0.054,-0.006 -0.18101,-0.200001 a 0.08900459,0.08900057 0 0 0 -0.063,-0.033 0.03800196,0.03800024 0 0 0 -0.039,0.034 l -0.036,0.205001 -0.049,0.006 -0.20001,-0.175001 a 0.07400382,0.07400047 0 0 0 -0.063,-0.021 0.04100212,0.04100026 0 0 0 -0.029,0.045 l 0.008,0.226001 -0.043,0.018 -0.217011,-0.140001 a 0.0600031,0.06000038 0 0 0 -0.061,-0.008 0.04800248,0.04800031 0 0 0 -0.017,0.054 l 0.051,0.238001 -0.035,0.028 -0.2230123,-0.100001 a 0.04800248,0.04800031 0 0 0 -0.057003,0.006 0.05900305,0.05900038 0 0 0 -0.005,0.061 l 0.092005,0.240002 -0.026001,0.039 -0.2200113,-0.054 a 0.04100212,0.04100026 0 0 0 -0.050003,0.019 0.07400382,0.07400047 0 0 0 0.007,0.066 l 0.1300067,0.234002 -0.016001,0.047 -0.2080108,-0.007 a 0.03800196,0.03800024 0 0 0 -0.041002,0.032 0.08900459,0.08900057 0 0 0 0.020001,0.068 l 0.1630084,0.219001 -0.005,0.053 -0.1900098,0.04 a 0.04000206,0.04000025 0 0 0 -0.031002,0.043 0.10000516,0.10000064 0 0 0 0.031002,0.068 l 0.1900098,0.195002 0.005,0.057 -0.1630084,0.085 a 0.04600237,0.04600029 0 0 0 -0.020001,0.052 0.11300583,0.11300072 0 0 0 0.041002,0.065 l 0.2080108,0.163001 0.016001,0.06 -0.1300067,0.127001 a 0.05700294,0.05700036 0 0 0 -0.007,0.06 0.11600599,0.11600074 0 0 0 0.050003,0.06 l 0.2200113,0.126001 0.026001,0.06 -0.092005,0.165001 a 0.07100367,0.07100045 0 0 0 0.005,0.065 0.11100573,0.11100071 0 0 0 0.057003,0.052 l 0.2230123,0.083 0.035,0.057 -0.051,0.200002 a 0.08600444,0.08600055 0 0 0 0.017,0.068 0.10000516,0.10000064 0 0 0 0.061,0.042 l 0.217011,0.038 0.043,0.053 -0.008,0.220001 a 0.10000516,0.10000064 0 0 0 0.029,0.068 0.08700449,0.08700055 0 0 0 0.063,0.031 l 0.20001,-0.009 0.049,0.047 0.036,0.234002 a 0.11100573,0.11100071 0 0 0 0.039,0.066 0.07100367,0.07100045 0 0 0 0.063,0.019 l 0.18001,-0.056 0.054,0.038 0.078,0.240002 a 0.11500594,0.11500073 0 0 0 0.048,0.061 0.05700294,0.05700036 0 0 0 0.06,0.005 l 0.152007,-0.100001 0.055,0.028 0.117006,0.238002 a 0.11300583,0.11300072 0 0 0 0.055,0.054 0.04700243,0.0470003 0 0 0 0.055,-0.008 l 0.117006,-0.142001 0.055,0.017 0.152008,0.225001 a 0.10000516,0.10000064 0 0 0 0.06,0.044 0.04000206,0.04000025 0 0 0 0.048,-0.021 l 0.078,-0.176001 0.054,0.006 0.18101,0.200001 a 0.09000465,0.09000057 0 0 0 0.063,0.033 0.03800196,0.03800024 0 0 0 0.039,-0.034 l 0.036,-0.200001 0.049,-0.006 0.200011,0.175001 a 0.07400382,0.07400047 0 0 0 0.063,0.021 0.04100212,0.04100026 0 0 0 0.029,-0.045 l -0.008,-0.226002 0.043,-0.018 0.217011,0.140001 a 0.05900305,0.05900038 0 0 0 0.061,0.008 0.04800248,0.04800031 0 0 0 0.017,-0.054 l -0.051,-0.238002 0.035,-0.028 0.223012,0.100001 a 0.04800248,0.04800031 0 0 0 0.057,-0.006 0.05900305,0.05900038 0 0 0 0.005,-0.061 l -0.09201,-0.240001 0.026,-0.039 0.220011,0.054 a 0.04100212,0.04100026 0 0 0 0.05,-0.019 0.07300377,0.07300046 0 0 0 -0.007,-0.066 l -0.130006,-0.234002 0.016,-0.047 0.208012,0.007 a 0.03800196,0.03800024 0 0 0 0.041,-0.032 0.08900459,0.08900057 0 0 0 -0.02,-0.068 l -0.163009,-0.219001 0.005,-0.053 0.190011,-0.04 a 0.04000206,0.04000025 0 0 0 0.031,-0.043 0.10000516,0.10000064 0 0 0 -0.026,-0.077 z m -1.269065,1.054007 A 0.21001084,0.21000133 0 0 1 12.11938,22.59633 c 0.015,-0.066 0.087,-0.083 0.159008,-0.038 a 0.21001084,0.21000133 0 0 1 0.100005,0.200001 c -0.015,0.063 -0.08601,0.083 -0.159008,0.038 z m -0.064,-0.462003 c -0.066,-0.041 -0.131006,-0.026 -0.145007,0.035 l -0.067,0.287002 a 1.6190836,1.6190103 0 0 1 -0.681035,-0.132001 2.5161299,2.5160159 0 0 1 -0.700036,-0.438002 l -0.067,-0.342003 a 0.20001032,0.20000126 0 0 0 -0.145008,-0.153001 l -0.277014,-0.054 q -0.077,-0.111001 -0.1430075,-0.228001 l 1.3500695,0.552003 c 0.015,0.006 0.025,0.008 0.025,-0.006 v -0.477003 c 0,-0.014 -0.01,-0.021 -0.025,-0.027 l -0.39502,-0.161001 v -0.300002 l 0.427022,0.175001 a 0.45902368,0.45900291 0 0 1 0.263013,0.335002 c 0.017,0.074 0.054,0.305002 0.08,0.385003 a 0.60803138,0.60800385 0 0 0 0.239012,0.331002 l 0.672035,0.275002 0.024,0.008 a 0.90004645,0.90000571 0 0 1 -0.153008,0.117 z M 10.288289,22.000326 A 0.22401156,0.22400142 0 0 1 10.12928,21.832325 c -0.015,-0.079 0.031,-0.132001 0.100005,-0.118001 a 0.22501162,0.22500142 0 0 1 0.159009,0.168001 c 0.019,0.079 -0.027,0.132001 -0.100005,0.118001 z M 9.7742625,19.714311 c 0.03,0.08 0,0.147001 -0.068,0.149001 a 0.20901079,0.20900132 0 0 1 -0.1770094,-0.141 c -0.030001,-0.08 0,-0.147001 0.068003,-0.149001 a 0.20901079,0.20900132 0 0 1 0.177009,0.141 z m -0.157008,0.309002 0.289015,-0.01 c 0.062,0 0.09,-0.063 0.062,-0.136001 l -0.06,-0.159001 0.2340115,0.100001 v 1.055007 L 9.6702565,20.680318 a 1.9441004,1.9440123 0 0 1 -0.063,-0.479003 1.5650808,1.56501 0 0 1 0.012,-0.180002 z m 1.2680645,0.416003 v -0.311002 l 0.557029,0.228002 c 0.029,0.012 0.200011,0.116 0.200011,0.247001 0,0.108001 -0.134007,0.092 -0.244013,0.047 l -0.517027,-0.211001 z m 2.025105,1.108007 q 0,0.062 0,0.121001 l -0.169008,-0.069 c -0.017,-0.007 -0.024,0 -0.024,0.018 v 0.078 c 0,0.183001 -0.100005,0.181001 -0.19401,0.154001 a 0.31101604,0.31100197 0 0 1 -0.19401,-0.168001 0.95304918,0.95300605 0 0 0 -0.269014,-0.563004 c 0.166009,-0.038 0.339018,-0.122 0.339018,-0.331002 a 0.86204449,0.86200547 0 0 0 -0.259013,-0.542003 1.1830611,1.1830075 0 0 0 -0.355019,-0.262002 l -1.752091,-0.717004 a 1.1440591,1.1440073 0 0 1 0.924048,-0.144001 l 0.207011,0.300002 c 0.047,0.068 0.124006,0.1 0.173009,0.075 l 0.231012,-0.127001 a 2.9511523,2.9510187 0 0 1 1.130058,1.267008 l -0.158008,0.293002 a 0.16900872,0.16900108 0 0 0 0.062,0.187001 l 0.300016,0.260002 q 0.01,0.087 0.01,0.170001 z m -1.74909,-2.526016 c 0.054,-0.029 0.138007,0.007 0.19001,0.082 0.052,0.075 0.049,0.159001 0,0.188001 -0.049,0.029 -0.138008,-0.007 -0.19001,-0.082 -0.052,-0.075 -0.053,-0.156001 0,-0.188001 z m 1.570081,1.905012 c 0.03,-0.056 0.109006,-0.054 0.177009,0 a 0.18500955,0.18500118 0 0 1 0.068,0.205001 c -0.03,0.056 -0.109006,0.054 -0.177009,0 a 0.18500955,0.18500118 0 0 1 -0.068,-0.202001 z"
       style="opacity:0.56;stroke-width:1.00003"
       id="path137" />
    <path
       d="m 26.013097,17.045294 -0.172009,-0.039 v -0.051 l 0.148007,-0.208001 a 0.08700449,0.08700055 0 0 0 0.018,-0.065 0.03500181,0.03500022 0 0 0 -0.037,-0.03 l -0.18901,0.006 -0.015,-0.045 0.118006,-0.222002 a 0.07300377,0.07300046 0 0 0 0.007,-0.063 0.03700191,0.03700024 0 0 0 -0.045,-0.018 l -0.20001,0.051 -0.03,-0.04 0.08401,-0.229002 a 0.05800299,0.05800037 0 0 0 0,-0.058 0.04200217,0.04200027 0 0 0 -0.051,-0.006 l -0.20001,0.094 -0.032,-0.027 0.047,-0.227001 a 0.04700243,0.0470003 0 0 0 -0.016,-0.052 0.05200268,0.05200033 0 0 0 -0.056,0.007 l -0.200011,0.133001 -0.039,-0.017 0.007,-0.215001 a 0.03900201,0.03900025 0 0 0 -0.026,-0.043 0.06500336,0.06500041 0 0 0 -0.058,0.02 l -0.184009,0.166001 -0.045,-0.006 -0.033,-0.200001 a 0.03600186,0.03600023 0 0 0 -0.036,-0.032 0.08000413,0.08000051 0 0 0 -0.057,0.031 l -0.164008,0.194001 -0.049,0.005 -0.071,-0.168001 a 0.03600186,0.03600023 0 0 0 -0.044,-0.021 0.09400485,0.0940006 0 0 0 -0.055,0.042 l -0.138007,0.214001 -0.05,0.016 -0.107006,-0.135 a 0.04100212,0.04100026 0 0 0 -0.05,-0.008 0.10000516,0.10000064 0 0 0 -0.05,0.051 l -0.107006,0.226001 -0.05,0.026 -0.138007,-0.1 a 0.05000258,0.05000032 0 0 0 -0.055,0 0.10900563,0.10900069 0 0 0 -0.044,0.058 l -0.071,0.228002 -0.049,0.036 -0.164008,-0.054 a 0.0620032,0.06200039 0 0 0 -0.057,0.017 0.10700552,0.10700068 0 0 0 -0.036,0.063 l -0.033,0.223001 -0.045,0.044 -0.184009,-0.01 a 0.07700397,0.07700049 0 0 0 -0.058,0.029 0.10000516,0.10000064 0 0 0 -0.026,0.065 l 0.007,0.209002 -0.039,0.05 -0.200011,0.035 a 0.09200475,0.09200059 0 0 0 -0.056,0.04 0.08500439,0.08500054 0 0 0 -0.016,0.065 l 0.046,0.187001 -0.032,0.054 -0.20001,0.079 a 0.10000516,0.10000064 0 0 0 -0.051,0.049 0.07000361,0.07000045 0 0 0 0,0.062 l 0.084,0.157001 -0.024,0.057 -0.20001,0.119001 a 0.10900563,0.10900069 0 0 0 -0.045,0.057 0.05600289,0.05600036 0 0 0 0.007,0.057 l 0.118006,0.122001 -0.015,0.058 -0.189009,0.155001 a 0.10700552,0.10700068 0 0 0 -0.037,0.062 0.04500232,0.04500029 0 0 0 0.018,0.05 l 0.148007,0.082 v 0.055 l -0.172009,0.185001 a 0.10000516,0.10000064 0 0 0 -0.028,0.065 0.03800196,0.03800024 0 0 0 0.028,0.041 l 0.172009,0.039 v 0.051 l -0.148007,0.208001 a 0.08800454,0.08800056 0 0 0 -0.018,0.065 0.03500181,0.03500022 0 0 0 0.037,0.03 l 0.189009,-0.006 0.015,0.045 -0.118006,0.222001 a 0.07300377,0.07300046 0 0 0 -0.007,0.063 0.03700191,0.03700024 0 0 0 0.045,0.018 l 0.20001,-0.051 0.024,0.037 -0.094,0.247001 a 0.05800299,0.05800037 0 0 0 0,0.058 0.04200217,0.04200027 0 0 0 0.051,0.006 l 0.200011,-0.094 0.032,0.027 -0.046,0.227002 a 0.04700243,0.0470003 0 0 0 0.016,0.051 0.05200268,0.05200033 0 0 0 0.056,-0.007 l 0.20001,-0.133001 0.039,0.017 -0.007,0.215001 a 0.03900201,0.03900025 0 0 0 0.026,0.043 0.06500336,0.06500041 0 0 0 0.058,-0.02 l 0.18401,-0.166001 0.045,0.006 0.033,0.200001 a 0.03500181,0.03500022 0 0 0 0.036,0.032 0.08000413,0.08000051 0 0 0 0.057,-0.031 l 0.164009,-0.194001 0.049,-0.005 0.071,0.168001 a 0.03600186,0.03600023 0 0 0 0.044,0.02 0.0930048,0.09300059 0 0 0 0.055,-0.042 l 0.138007,-0.214002 0.05,-0.016 0.107005,0.135001 a 0.04100212,0.04100026 0 0 0 0.05,0.008 0.10000516,0.10000064 0 0 0 0.05,-0.051 l 0.107005,-0.226002 0.05,-0.027 0.138007,0.100001 a 0.05000258,0.05000032 0 0 0 0.055,0 0.10900563,0.10900069 0 0 0 0.044,-0.058 l 0.071,-0.228001 0.049,-0.036 0.164009,0.054 a 0.06300325,0.0630004 0 0 0 0.057,-0.017 0.10700552,0.10700068 0 0 0 0.036,-0.063 l 0.038,-0.239001 0.045,-0.044 0.184009,0.01 a 0.07700397,0.07700049 0 0 0 0.058,-0.029 0.10000516,0.10000064 0 0 0 0.026,-0.065 l -0.007,-0.209001 0.039,-0.05 0.20001,-0.035 a 0.0910047,0.09100058 0 0 0 0.056,-0.04 0.08500439,0.08500054 0 0 0 0.016,-0.065 l -0.046,-0.187002 0.032,-0.054 0.200011,-0.079 a 0.10000516,0.10000064 0 0 0 0.051,-0.049 0.07000361,0.07000045 0 0 0 0,-0.062 l -0.084,-0.157001 0.024,-0.057 0.200011,-0.119 a 0.10800558,0.10800069 0 0 0 0.045,-0.057 0.05600289,0.05600036 0 0 0 -0.006,-0.052 l -0.118006,-0.122001 0.015,-0.058 0.18901,-0.155001 a 0.10700552,0.10700068 0 0 0 0.037,-0.062 0.04500232,0.04500029 0 0 0 -0.018,-0.05 l -0.148008,-0.082 v -0.055 l 0.172009,-0.185001 a 0.10000516,0.10000064 0 0 0 0.028,-0.065 0.03800196,0.03800024 0 0 0 -0.019,-0.042 z m -1.15306,1.988013 c -0.066,0.013 -0.108005,-0.037 -0.094,-0.112001 a 0.20801074,0.20800131 0 0 1 0.145008,-0.160001 c 0.066,-0.013 0.108005,0.037 0.094,0.112001 a 0.20901079,0.20900132 0 0 1 -0.146008,0.161001 z m -0.059,-0.390002 a 0.19000981,0.19000121 0 0 0 -0.132007,0.146001 l -0.061,0.325002 a 2.2521163,2.2520142 0 0 1 -0.619032,0.400002 1.4000723,1.4000089 0 0 1 -0.632032,0.123001 l -0.061,-0.273002 c -0.013,-0.057 -0.072,-0.072 -0.132006,-0.033 L 22.911947,19.49531 A 0.82504258,0.82500523 0 0 1 22.78194,19.389309 l 1.226063,-0.521003 c 0.014,-0.006 0.023,-0.012 0.023,-0.026 v -0.455003 c 0,-0.013 -0.009,-0.012 -0.023,-0.006 l -0.359018,0.152001 v -0.288002 l 0.38802,-0.165001 a 0.16100831,0.16100103 0 0 1 0.239012,0.115001 c 0.015,0.057 0.049,0.249001 0.072,0.300002 0.023,0.051 0.117006,0.172001 0.217011,0.130001 l 0.611032,-0.260002 0.022,-0.012 c -0.042,0.078 -0.08901,0.155001 -0.139008,0.230001 z m -1.700088,1.130007 c -0.066,0.043 -0.131006,0.026 -0.145007,-0.037 a 0.20001032,0.20000126 0 0 1 0.094,-0.192002 c 0.066,-0.043 0.131007,-0.026 0.145007,0.037 a 0.20001032,0.20000126 0 0 1 -0.09,0.192001 z m -0.465024,-1.779011 a 0.18000929,0.18000115 0 0 1 -0.062,0.200001 c -0.062,0.055 -0.134007,0.056 -0.161008,0 a 0.18000929,0.18000115 0 0 1 0.062,-0.200001 c 0.065,-0.051 0.137007,-0.053 0.165009,0 z m -0.143007,0.416002 0.263014,-0.234001 a 0.16400847,0.16400104 0 0 0 0.057,-0.178001 l -0.054,-0.105001 0.213011,-0.09 v 1.000007 l -0.429022,0.182001 a 1.3860715,1.3860088 0 0 1 -0.057,-0.407003 c 0.002,-0.057 0.005,-0.11 0.011,-0.168001 z m 1.152059,-0.587004 v -0.300001 l 0.506027,-0.215002 c 0.026,-0.011 0.185009,-0.047 0.185009,0.077 0,0.1 -0.122006,0.192001 -0.222011,0.234001 l -0.470025,0.200001 z m 1.840095,-0.516003 q 0,0.059 0,0.118001 l -0.154007,0.065 a 0.03600186,0.03600023 0 0 0 -0.022,0.036 v 0.074 a 0.310016,0.31000196 0 0 1 -0.176009,0.300002 c -0.078,0.043 -0.165008,0.036 -0.176009,-0.01 -0.046,-0.253002 -0.123006,-0.278002 -0.245012,-0.327002 a 0.98405078,0.98400624 0 0 0 0.308015,-0.578004 0.30001549,0.3000019 0 0 0 -0.235012,-0.315002 0.56802931,0.56800361 0 0 0 -0.322016,0.026 l -1.588082,0.675005 a 2.7001394,2.7000171 0 0 1 0.840043,-0.853006 l 0.18801,0.127001 c 0.042,0.029 0.113006,0 0.157008,-0.063 l 0.210011,-0.300002 a 0.9380484,0.93800595 0 0 1 1.027053,0.330002 l -0.144008,0.400002 c -0.025,0.069 0,0.128001 0.057,0.130001 l 0.277015,0.011 q 0.002,0.075 0.002,0.154001 z M 23.89399,16.263289 c 0.049,-0.069 0.126007,-0.1 0.172009,-0.069 0.046,0.031 0.045,0.113001 0,0.183001 -0.045,0.07 -0.126006,0.100001 -0.172009,0.069 -0.046,-0.031 -0.045,-0.114001 0.004,-0.184002 z m 1.427074,0.600004 a 0.19100986,0.19100122 0 0 1 0.161008,-0.133001 c 0.062,0 0.08901,0.066 0.062,0.142001 a 0.19100986,0.19100122 0 0 1 -0.161009,0.133001 c -0.058,-0.006 -0.086,-0.07 -0.058,-0.146001 z"
       style="opacity:0.55;stroke-width:1.00003"
       id="path139" />
    <g
       id="use141"
       transform="matrix(0,-0.02900018,0.02200114,0.01300008,2.4878824,15.107282)">
      <rect
         width="45.720001"
         height="26.280001"
         style="fill:none"
         id="rect1554"
         x="0"
         y="0" />
      <polygon
         points="45.72,13.139 22.926,0 22.926,9.97 0,9.97 0,16.309 22.926,16.309 22.926,26.28 "
         style="fill:#231f20"
         id="polygon1556" />
    </g>
    <g
       id="use143"
       transform="matrix(0,-0.02900018,0.02200114,0.01300008,7.0501179,16.953294)">
      <rect
         width="45.720001"
         height="26.280001"
         style="fill:none"
         id="rect1560"
         x="0"
         y="0" />
      <polygon
         points="45.72,13.139 22.926,0 22.926,9.97 0,9.97 0,16.309 22.926,16.309 22.926,26.28 "
         style="fill:#231f20"
         id="polygon1562" />
    </g>
    <g
       id="use145"
       transform="matrix(0,-0.02900018,0.02200114,0.01300008,8.6251992,9.4592462)">
      <rect
         width="45.720001"
         height="26.280001"
         style="fill:none"
         id="rect1566"
         x="0"
         y="0" />
      <polygon
         points="45.72,13.139 22.926,0 22.926,9.97 0,9.97 0,16.309 22.926,16.309 22.926,26.28 "
         style="fill:#231f20"
         id="polygon1568" />
    </g>
    <g
       id="use147"
       transform="matrix(0,-0.02900018,0.02200114,0.01300008,13.187435,11.305258)">
      <rect
         width="45.720001"
         height="26.280001"
         style="fill:none"
         id="rect1572"
         x="0"
         y="0" />
      <polygon
         points="45.72,13.139 22.926,0 22.926,9.97 0,9.97 0,16.309 22.926,16.309 22.926,26.28 "
         style="fill:#231f20"
         id="polygon1574" />
    </g>
    <g
       id="use149"
       transform="matrix(0,-0.02900018,0.02000103,-0.01200008,14.947526,19.861312)">
      <rect
         width="45.720001"
         height="26.280001"
         style="fill:none"
         id="rect1578"
         x="0"
         y="0" />
      <polygon
         points="45.72,13.139 22.926,0 22.926,9.97 0,9.97 0,16.309 22.926,16.309 22.926,26.28 "
         style="fill:#231f20"
         id="polygon1580" />
    </g>
    <g
       id="use151"
       transform="matrix(0,-0.02900018,0.02000103,-0.01200008,19.563764,18.015301)">
      <rect
         width="45.720001"
         height="26.280001"
         style="fill:none"
         id="rect1584"
         x="0"
         y="0" />
      <polygon
         points="45.72,13.139 22.926,0 22.926,9.97 0,9.97 0,16.309 22.926,16.309 22.926,26.28 "
         style="fill:#231f20"
         id="polygon1586" />
    </g>
    <g
       id="use153"
       transform="matrix(0,-0.02900018,0.02000103,-0.01200008,21.246851,9.4882462)">
      <rect
         width="45.720001"
         height="26.280001"
         style="fill:none"
         id="rect1590"
         x="0"
         y="0" />
      <polygon
         points="45.72,13.139 22.926,0 22.926,9.97 0,9.97 0,16.309 22.926,16.309 22.926,26.28 "
         style="fill:#231f20"
         id="polygon1592" />
    </g>
    <g
       id="use155"
       transform="matrix(0,-0.02900018,0.02000103,-0.01200008,25.864089,7.6422352)">
      <rect
         width="45.720001"
         height="26.280001"
         style="fill:none"
         id="rect1596"
         x="0"
         y="0" />
      <polygon
         points="45.72,13.139 22.926,0 22.926,9.97 0,9.97 0,16.309 22.926,16.309 22.926,26.28 "
         style="fill:#231f20"
         id="polygon1598" />
    </g>
  </g>
</svg>
